<svg width="193" height="166" viewBox="0 0 193 166" fill="none" xmlns="http://www.w3.org/2000/svg">
<path d="M168.875 79.5416C168.903 88.6707 166.423 97.6763 161.638 105.825C155.964 115.59 147.241 123.803 136.447 129.544C125.652 135.286 113.213 138.329 100.521 138.333C89.9069 138.357 79.4365 136.224 69.9625 132.108L24.125 145.25L39.4042 105.825C34.6188 97.6763 32.139 88.6707 32.1667 79.5416C32.1716 68.6254 35.7099 57.926 42.3854 48.6418C49.0608 39.3575 58.6097 31.8551 69.9625 26.975C79.4365 22.8591 89.9069 20.7262 100.521 20.75H104.542C121.303 21.5453 137.135 27.6304 149.005 37.8401C160.875 48.0497 167.95 61.6666 168.875 76.0833V79.5416Z" stroke="white" stroke-width="7.33333" stroke-linecap="round" stroke-linejoin="round"/>
</svg>
