<svg width="153" height="149" viewBox="0 0 153 149" fill="none" xmlns="http://www.w3.org/2000/svg">
<path d="M95.9439 31.0416C102.171 32.2247 107.893 35.1904 112.379 39.559C116.865 43.9277 119.91 49.5006 121.125 55.5645M95.9439 6.20825C108.881 7.60784 120.944 13.2496 130.154 22.2072C139.363 31.1648 145.172 42.9058 146.625 55.5024M140.25 105.045V123.67C140.257 125.399 139.894 127.11 139.182 128.695C138.471 130.279 137.428 131.701 136.12 132.87C134.811 134.039 133.267 134.929 131.585 135.483C129.903 136.036 128.121 136.242 126.353 136.087C106.736 134.011 87.8922 127.483 71.3364 117.027C55.9333 107.495 42.8741 94.7774 33.0864 79.777C22.3125 63.5807 15.6077 45.1407 13.5151 25.9508C13.3558 24.2339 13.5653 22.5036 14.1303 20.87C14.6953 19.2364 15.6034 17.7352 16.7968 16.4621C17.9901 15.1889 19.4426 14.1717 21.0618 13.4752C22.681 12.7787 24.4313 12.4182 26.2014 12.4166H45.3264C48.4202 12.3869 51.4195 13.4539 53.7654 15.4185C56.1112 17.3832 57.6434 20.1115 58.0764 23.0949C58.8836 29.0553 60.3806 34.9077 62.5389 40.5403C63.3966 42.7625 63.5822 45.1774 63.0738 47.4991C62.5653 49.8208 61.3841 51.9519 59.6701 53.6399L51.5739 61.5245C60.649 77.0674 73.8638 89.9366 89.8239 98.7745L97.9201 90.8899C99.6534 89.2207 101.842 88.0704 104.226 87.5753C106.61 87.0801 109.09 87.2609 111.371 88.0962C117.155 90.198 123.165 91.6559 129.285 92.442C132.382 92.8675 135.21 94.3865 137.232 96.7102C139.253 99.0339 140.328 102 140.25 105.045Z" stroke="white" stroke-width="7.33333" stroke-linecap="round" stroke-linejoin="round"/>
</svg>
